# xmcd CD database file
# Copyright (C) 1993-1996 Ti Kan
#
# Track frame offsets:
# 150
# 12045
# 24747
# 38930
# 50620
# 64115
# 77745
# 89295
# 101740
# 115787
# 128250
# 140817
# 153150
# 164980
# 175912
# 186555
# 197385
# 209942
# 221667
# 234025
# 246227
# 260042
# 274532
# 287167
# 300807
# 313980
#
# Disc length: 4345 seconds
#
# Revision: 0
# Processed by: cddbd v1.4PL0 Copyright (c) Steve Scherf et al.
# Submitted via: inCDius 1.1b5
#
DISCID=7c10f71a
DTITLE=Ernest Tubb - Walking The Floor Over You - Disc 2
DYEAR=1996
DGENRE=Country
TTITLE0=Walking The Floor Over You
TTITLE1=When The World Has Turned You Down
TTITLE2=Our Baby's Book
TTITLE3=I'll Always Be Glad To Take You Back
TTITLE4=Mean Mama Blues
TTITLE5=I Wonder Why You Said Goodbye
TTITLE6=I Ain't Goin' Honky Tonkin' Anymore
TTITLE7=I Hate To See You Go
TTITLE8=Time After Time
TTITLE9=First Year Blues
TTITLE10=Just Rollin' On
TTITLE11=There's Nothing More To Say
TTITLE12=Wasting My Life Away
TTITLE13=You May Have Your Picture
TTITLE14=That Same Old Story
TTITLE15=Try Me One More Time
TTITLE16=You Really Lose Your Mind
TTITLE17=That's When It's Coming Home To You
TTITLE18=I Don't Want You After All
TTITLE19=I'm Wondering How
TTITLE20=Tomorrow Never Comes
TTITLE21=Soldier's Last Letter
TTITLE22=Careless Darlin'
TTITLE23=Yesterday's Tears
TTITLE24=I'll Never Cry Over You
TTITLE25=Last Night I Dreamed
EXTD=
EXTT0=
EXTT1=
EXTT2=
EXTT3=
EXTT4=
EXTT5=
EXTT6=
EXTT7=
EXTT8=
EXTT9=
EXTT10=
EXTT11=
EXTT12=
EXTT13=
EXTT14=
EXTT15=
EXTT16=
EXTT17=
EXTT18=
EXTT19=
EXTT20=
EXTT21=
EXTT22=
EXTT23=
EXTT24=
EXTT25=
PLAYORDER=
